{"asset":{"version":"2.0","generator":"Blockbench 4.8.3 glTF exporter"},"scenes":[{"nodes":[24],"name":"blockbench_export"}],"scene":0,"nodes":[{"name":"Top","mesh":0},{"name":"BeamTop","mesh":1},{"name":"BeamBase","mesh":2},{"name":"Base","mesh":3},{"rotation":[-0.4999999999999993,0.5000000000000007,-0.4999999999999992,0.5000000000000008],"name":"Cylinder1","mesh":4},{"rotation":[0.1530459187330304,-0.15304591873303147,-0.6903455270798563,0.6903455270798532],"name":"Cylinder2","mesh":5},{"rotation":[-0.6903455270798512,0.6903455270798583,0.1530459187330311,-0.15304591873303114],"name":"Cylinder3","mesh":6},{"translation":[1.8214285714285716,-3.5,0],"name":"Beam5","mesh":7},{"translation":[-1.8214285714285716,3.5,0],"name":"Beam5","children":[7]},{"translation":[1.8214285714285714,-0.5,0],"name":"Beam4","mesh":8},{"translation":[-1.8214285714285714,0.5,0],"name":"Beam4","children":[9]},{"translation":[1.8214285714285714,2.5,0],"name":"Beam3","mesh":9},{"translation":[-1.8214285714285714,-2.5,0],"name":"Beam3","children":[11]},{"translation":[1.8214285714285716,5.5,0],"name":"Beam2","mesh":10},{"translation":[-1.8214285714285716,-5.5,0],"name":"Beam2","children":[13]},{"translation":[1.8214285714285716,8.5,0],"name":"Beam1","mesh":11},{"translation":[-1.8214285714285716,-8.5,0],"name":"Beam1","children":[15]},{"rotation":[0.7071067811865475,0,0,0.7071067811865476],"translation":[7.999999999999998,-10.5,9.325873406851315e-15],"name":"Cylinder1Inside","mesh":12},{"translation":[-7.999999999999998,10.5,-9.325873406851315e-15],"name":"Cylinder1Inside","children":[17]},{"rotation":[0,0,0.7071067811865475,0.7071067811865476],"translation":[-0.5448220047129084,-10.5,4.885134940317062],"name":"Cylinder2Inside","mesh":13},{"rotation":[0,-0.21643961393810288,0,0.9762960071199334],"translation":[0.5448220047129084,10.5,-4.885134940317062],"name":"Cylinder2Inside","children":[19]},{"rotation":[0,0,0.7071067811865475,0.7071067811865476],"translation":[-1.0357095704441965,-10.5,-4.687846722219899],"name":"Cylinder3Inside","mesh":14},{"rotation":[0,0.21643961393810288,0,0.9762960071199334],"translation":[1.0357095704441965,10.5,4.687846722219899],"name":"Cylinder3Inside","children":[21]},{"translation":[0,11,0],"name":"PSO","children":[0,1,2,3,4,5,6,8,10,12,14,16,18,20,22]},{"children":[23]}],"bufferViews":[{"buffer":0,"byteOffset":0,"byteLength":3216,"target":34962,"byteStride":12},{"buffer":0,"byteOffset":3216,"byteLength":3216,"target":34962,"byteStride":12},{"buffer":0,"byteOffset":6432,"byteLength":2144,"target":34962,"byteStride":8},{"buffer":0,"byteOffset":8576,"byteLength":732,"target":34963},{"buffer":0,"byteOffset":9308,"byteLength":288,"target":34962,"byteStride":12},{"buffer":0,"byteOffset":9596,"byteLength":288,"target":34962,"byteStride":12},{"buffer":0,"byteOffset":9884,"byteLength":192,"target":34962,"byteStride":8},{"buffer":0,"byteOffset":10076,"byteLength":72,"target":34963},{"buffer":0,"byteOffset":10148,"byteLength":288,"target":34962,"byteStride":12},{"buffer":0,"byteOffset":10436,"byteLength":288,"target":34962,"byteStride":12},{"buffer":0,"byteOffset":10724,"byteLength":192,"target":34962,"byteStride":8},{"buffer":0,"byteOffset":10916,"byteLength":72,"target":34963},{"buffer":0,"byteOffset":10988,"byteLength":1296,"target":34962,"byteStride":12},{"buffer":0,"byteOffset":12284,"byteLength":1296,"target":34962,"byteStride":12},{"buffer":0,"byteOffset":13580,"byteLength":864,"target":34962,"byteStride":8},{"buffer":0,"byteOffset":14444,"byteLength":288,"target":34963},{"buffer":0,"byteOffset":14732,"byteLength":624,"target":34962,"byteStride":12},{"buffer":0,"byteOffset":15356,"byteLength":624,"target":34962,"byteStride":12},{"buffer":0,"byteOffset":15980,"byteLength":416,"target":34962,"byteStride":8},{"buffer":0,"byteOffset":16396,"byteLength":156,"target":34963},{"buffer":0,"byteOffset":16552,"byteLength":624,"target":34962,"byteStride":12},{"buffer":0,"byteOffset":17176,"byteLength":624,"target":34962,"byteStride":12},{"buffer":0,"byteOffset":17800,"byteLength":416,"target":34962,"byteStride":8},{"buffer":0,"byteOffset":18216,"byteLength":156,"target":34963},{"buffer":0,"byteOffset":18372,"byteLength":624,"target":34962,"byteStride":12},{"buffer":0,"byteOffset":18996,"byteLength":624,"target":34962,"byteStride":12},{"buffer":0,"byteOffset":19620,"byteLength":416,"target":34962,"byteStride":8},{"buffer":0,"byteOffset":20036,"byteLength":156,"target":34963},{"buffer":0,"byteOffset":20192,"byteLength":288,"target":34962,"byteStride":12},{"buffer":0,"byteOffset":20480,"byteLength":288,"target":34962,"byteStride":12},{"buffer":0,"byteOffset":20768,"byteLength":192,"target":34962,"byteStride":8},{"buffer":0,"byteOffset":20960,"byteLength":72,"target":34963},{"buffer":0,"byteOffset":21032,"byteLength":288,"target":34962,"byteStride":12},{"buffer":0,"byteOffset":21320,"byteLength":288,"target":34962,"byteStride":12},{"buffer":0,"byteOffset":21608,"byteLength":192,"target":34962,"byteStride":8},{"buffer":0,"byteOffset":21800,"byteLength":72,"target":34963},{"buffer":0,"byteOffset":21872,"byteLength":288,"target":34962,"byteStride":12},{"buffer":0,"byteOffset":22160,"byteLength":288,"target":34962,"byteStride":12},{"buffer":0,"byteOffset":22448,"byteLength":192,"target":34962,"byteStride":8},{"buffer":0,"byteOffset":22640,"byteLength":72,"target":34963},{"buffer":0,"byteOffset":22712,"byteLength":288,"target":34962,"byteStride":12},{"buffer":0,"byteOffset":23000,"byteLength":288,"target":34962,"byteStride":12},{"buffer":0,"byteOffset":23288,"byteLength":192,"target":34962,"byteStride":8},{"buffer":0,"byteOffset":23480,"byteLength":72,"target":34963},{"buffer":0,"byteOffset":23552,"byteLength":288,"target":34962,"byteStride":12},{"buffer":0,"byteOffset":23840,"byteLength":288,"target":34962,"byteStride":12},{"buffer":0,"byteOffset":24128,"byteLength":192,"target":34962,"byteStride":8},{"buffer":0,"byteOffset":24320,"byteLength":72,"target":34963},{"buffer":0,"byteOffset":24392,"byteLength":288,"target":34962,"byteStride":12},{"buffer":0,"byteOffset":24680,"byteLength":288,"target":34962,"byteStride":12},{"buffer":0,"byteOffset":24968,"byteLength":192,"target":34962,"byteStride":8},{"buffer":0,"byteOffset":25160,"byteLength":72,"target":34963},{"buffer":0,"byteOffset":25232,"byteLength":288,"target":34962,"byteStride":12},{"buffer":0,"byteOffset":25520,"byteLength":288,"target":34962,"byteStride":12},{"buffer":0,"byteOffset":25808,"byteLength":192,"target":34962,"byteStride":8},{"buffer":0,"byteOffset":26000,"byteLength":72,"target":34963},{"buffer":0,"byteOffset":26072,"byteLength":288,"target":34962,"byteStride":12},{"buffer":0,"byteOffset":26360,"byteLength":288,"target":34962,"byteStride":12},{"buffer":0,"byteOffset":26648,"byteLength":192,"target":34962,"byteStride":8},{"buffer":0,"byteOffset":26840,"byteLength":72,"target":34963},{"buffer":0,"byteOffset":26912,"byteLength":8},{"buffer":0,"byteOffset":26920,"byteLength":24},{"buffer":0,"byteOffset":26944,"byteLength":8},{"buffer":0,"byteOffset":26952,"byteLength":24},{"buffer":0,"byteOffset":26976,"byteLength":8},{"buffer":0,"byteOffset":26984,"byteLength":24},{"buffer":0,"byteOffset":27008,"byteLength":4},{"buffer":0,"byteOffset":27012,"byteLength":16},{"buffer":0,"byteOffset":27028,"byteLength":8},{"buffer":0,"byteOffset":27036,"byteLength":24},{"buffer":0,"byteOffset":27060,"byteLength":8},{"buffer":0,"byteOffset":27068,"byteLength":24},{"buffer":0,"byteOffset":27092,"byteLength":12},{"buffer":0,"byteOffset":27104,"byteLength":48},{"buffer":0,"byteOffset":27152,"byteLength":12},{"buffer":0,"byteOffset":27164,"byteLength":48},{"buffer":0,"byteOffset":27212,"byteLength":12},{"buffer":0,"byteOffset":27224,"byteLength":48}],"buffers":[{"byteLength":27272,"uri":"data:application/octet-stream;base64,"}],"accessors":[{"bufferView":0,"componentType":5126,"count":268,"max":[8,11,8],"min":[-8,9,-8],"type":"VEC3"},{"bufferView":1,"componentType":5126,"count":268,"max":[1,1,0.907008945941925],"min":[-1,-1,-0.907008945941925],"type":"VEC3"},{"bufferView":2,"componentType":5126,"count":268,"max":[1,0.75],"min":[0,0],"type":"VEC2"},{"bufferView":3,"componentType":5123,"count":366,"max":[267],"min":[0],"type":"SCALAR"},{"bufferView":4,"componentType":5126,"count":24,"max":[6.214285850524902,9.125,6.25],"min":[-6.285714149475098,7.375,-6.25],"type":"VEC3"},{"bufferView":5,"componentType":5126,"count":24,"max":[1,0,0.8944271802902222],"min":[-1,0,-0.8944271802902222],"type":"VEC3"},{"bufferView":6,"componentType":5126,"count":24,"max":[1,0.5],"min":[0.5,0],"type":"VEC2"},{"bufferView":7,"componentType":5123,"count":36,"max":[23],"min":[0],"type":"SCALAR"},{"bufferView":8,"componentType":5126,"count":24,"max":[6.214285850524902,-8.375,6.25],"min":[-6.285714149475098,-10.125,-6.25],"type":"VEC3"},{"bufferView":9,"componentType":5126,"count":24,"max":[1,0,0.8944271802902222],"min":[-1,0,-0.8944271802902222],"type":"VEC3"},{"bufferView":10,"componentType":5126,"count":24,"max":[1,0.5],"min":[0.5,0],"type":"VEC2"},{"bufferView":11,"componentType":5123,"count":36,"max":[23],"min":[0],"type":"SCALAR"},{"bufferView":12,"componentType":5126,"count":108,"max":[8,-10,8],"min":[-8,-11,-8],"type":"VEC3"},{"bufferView":13,"componentType":5126,"count":108,"max":[0.7071067690849304,1,0.6441701054573059],"min":[-0.7071067690849304,0.5773502588272095,-0.6441704630851746],"type":"VEC3"},{"bufferView":14,"componentType":5126,"count":108,"max":[0.75,0.75],"min":[0,0],"type":"VEC2"},{"bufferView":15,"componentType":5123,"count":144,"max":[107],"min":[0],"type":"SCALAR"},{"bufferView":16,"componentType":5126,"count":52,"max":[-9.5,2.5,-6.125],"min":[-11.5,-2.5,-8.875],"type":"VEC3"},{"bufferView":17,"componentType":5126,"count":52,"max":[0.9662349224090576,1,0.25766265392303467],"min":[-0.9662349224090576,-1,-1],"type":"VEC3"},{"bufferView":18,"componentType":5126,"count":52,"max":[0.75,1],"min":[0,0.75],"type":"VEC2"},{"bufferView":19,"componentType":5123,"count":78,"max":[51],"min":[0],"type":"SCALAR"},{"bufferView":20,"componentType":5126,"count":52,"max":[-9.5,1.0361038446426392,-2.8558857440948486],"min":[-11.5,-3.9638960361480713,-5.6058855056762695],"type":"VEC3"},{"bufferView":21,"componentType":5126,"count":52,"max":[0.9662349224090576,1,0.25766265392303467],"min":[-0.9662349224090576,-1,-1],"type":"VEC3"},{"bufferView":22,"componentType":5126,"count":52,"max":[0.75,1],"min":[0,0.75],"type":"VEC2"},{"bufferView":23,"componentType":5123,"count":78,"max":[51],"min":[0],"type":"SCALAR"},{"bufferView":24,"componentType":5126,"count":52,"max":[-9.5,3.6011290550231934,-2.8525803089141846],"min":[-11.5,-1.3988710641860962,-5.6025800704956055],"type":"VEC3"},{"bufferView":25,"componentType":5126,"count":52,"max":[0.9662349224090576,1,0.25766265392303467],"min":[-0.9662349224090576,-1,-1],"type":"VEC3"},{"bufferView":26,"componentType":5126,"count":52,"max":[0.75,1],"min":[0,0.75],"type":"VEC2"},{"bufferView":27,"componentType":5123,"count":78,"max":[51],"min":[0],"type":"SCALAR"},{"bufferView":28,"componentType":5126,"count":24,"max":[6.214285850524902,3.75,6.25],"min":[-6.285714149475098,3.25,-6.25],"type":"VEC3"},{"bufferView":29,"componentType":5126,"count":24,"max":[1,0,0.8944271802902222],"min":[-1,0,-0.8944271802902222],"type":"VEC3"},{"bufferView":30,"componentType":5126,"count":24,"max":[1,0.5],"min":[0.5,0],"type":"VEC2"},{"bufferView":31,"componentType":5123,"count":36,"max":[23],"min":[0],"type":"SCALAR"},{"bufferView":32,"componentType":5126,"count":24,"max":[6.214285850524902,0.75,6.25],"min":[-6.285714149475098,0.25,-6.25],"type":"VEC3"},{"bufferView":33,"componentType":5126,"count":24,"max":[1,0,0.8944271802902222],"min":[-1,0,-0.8944271802902222],"type":"VEC3"},{"bufferView":34,"componentType":5126,"count":24,"max":[1,0.5],"min":[0.5,0],"type":"VEC2"},{"bufferView":35,"componentType":5123,"count":36,"max":[23],"min":[0],"type":"SCALAR"},{"bufferView":36,"componentType":5126,"count":24,"max":[6.214285850524902,-2.25,6.25],"min":[-6.285714149475098,-2.75,-6.25],"type":"VEC3"},{"bufferView":37,"componentType":5126,"count":24,"max":[1,0,0.8944271802902222],"min":[-1,0,-0.8944271802902222],"type":"VEC3"},{"bufferView":38,"componentType":5126,"count":24,"max":[1,0.5],"min":[0.5,0],"type":"VEC2"},{"bufferView":39,"componentType":5123,"count":36,"max":[23],"min":[0],"type":"SCALAR"},{"bufferView":40,"componentType":5126,"count":24,"max":[6.214285850524902,-5.25,6.25],"min":[-6.285714149475098,-5.75,-6.25],"type":"VEC3"},{"bufferView":41,"componentType":5126,"count":24,"max":[1,0,0.8944271802902222],"min":[-1,0,-0.8944271802902222],"type":"VEC3"},{"bufferView":42,"componentType":5126,"count":24,"max":[1,0.5],"min":[0.5,0],"type":"VEC2"},{"bufferView":43,"componentType":5123,"count":36,"max":[23],"min":[0],"type":"SCALAR"},{"bufferView":44,"componentType":5126,"count":24,"max":[6.214285850524902,-8.25,6.25],"min":[-6.285714149475098,-8.75,-6.25],"type":"VEC3"},{"bufferView":45,"componentType":5126,"count":24,"max":[1,0,0.8944271802902222],"min":[-1,0,-0.8944271802902222],"type":"VEC3"},{"bufferView":46,"componentType":5126,"count":24,"max":[1,0.5],"min":[0.5,0],"type":"VEC2"},{"bufferView":47,"componentType":5123,"count":36,"max":[23],"min":[0],"type":"SCALAR"},{"bufferView":48,"componentType":5126,"count":24,"max":[-7.125,1.125,-9.75],"min":[-8.875,-1.125,-11.25],"type":"VEC3"},{"bufferView":49,"componentType":5126,"count":24,"max":[0.8637788891792297,0,1],"min":[-0.8637788891792297,0,-1],"type":"VEC3"},{"bufferView":50,"componentType":5126,"count":24,"max":[1,0.75],"min":[0.75,0.5],"type":"VEC2"},{"bufferView":51,"componentType":5123,"count":36,"max":[23],"min":[0],"type":"SCALAR"},{"bufferView":52,"componentType":5126,"count":24,"max":[11.375,0.5801780223846436,-4.135135173797607],"min":[9.625,-1.6698219776153564,-5.635135173797607],"type":"VEC3"},{"bufferView":53,"componentType":5126,"count":24,"max":[0.8637788891792297,0,1],"min":[-0.8637788891792297,0,-1],"type":"VEC3"},{"bufferView":54,"componentType":5126,"count":24,"max":[1,0.75],"min":[0.75,0.5],"type":"VEC2"},{"bufferView":55,"componentType":5123,"count":36,"max":[23],"min":[0],"type":"SCALAR"},{"bufferView":56,"componentType":5126,"count":24,"max":[11.375,0.08929043263196945,5.437846660614014],"min":[9.625,-2.1607096195220947,3.9378466606140137],"type":"VEC3"},{"bufferView":57,"componentType":5126,"count":24,"max":[0.8637788891792297,0,1],"min":[-0.8637788891792297,0,-1],"type":"VEC3"},{"bufferView":58,"componentType":5126,"count":24,"max":[1,0.75],"min":[0.75,0.5],"type":"VEC2"},{"bufferView":59,"componentType":5123,"count":36,"max":[23],"min":[0],"type":"SCALAR"},{"bufferView":60,"componentType":5126,"count":2,"max":[1],"min":[0],"type":"SCALAR"},{"bufferView":61,"componentType":5126,"count":2,"max":[-1.8214285373687744,7.25,0],"min":[-1.8214285373687744,3.5,0],"type":"VEC3"},{"bufferView":62,"componentType":5126,"count":2,"max":[1],"min":[0],"type":"SCALAR"},{"bufferView":63,"componentType":5126,"count":2,"max":[-1.8214285373687744,-5.5,0],"min":[-1.8214285373687744,-8.5,0],"type":"VEC3"},{"bufferView":64,"componentType":5126,"count":2,"max":[1],"min":[0],"type":"SCALAR"},{"bufferView":65,"componentType":5126,"count":2,"max":[-1.8214285373687744,-2.5,0],"min":[-1.8214285373687744,-5.5,0],"type":"VEC3"},{"bufferView":66,"componentType":5126,"count":1,"max":[1],"min":[1],"type":"SCALAR"},{"bufferView":67,"componentType":5126,"count":1,"max":[0,0,0,1],"min":[0,0,0,1],"type":"VEC4"},{"bufferView":68,"componentType":5126,"count":2,"max":[1],"min":[0],"type":"SCALAR"},{"bufferView":69,"componentType":5126,"count":2,"max":[-1.8214285373687744,0.5,0],"min":[-1.8214285373687744,-2.5,0],"type":"VEC3"},{"bufferView":70,"componentType":5126,"count":2,"max":[1],"min":[0],"type":"SCALAR"},{"bufferView":71,"componentType":5126,"count":2,"max":[-1.8214285373687744,3.5,0],"min":[-1.8214285373687744,0.5,0],"type":"VEC3"},{"bufferView":72,"componentType":5126,"count":3,"max":[1],"min":[0],"type":"SCALAR"},{"bufferView":73,"componentType":5126,"count":3,"max":[0,0,0,1],"min":[0,0,-0.8549118638038635,0.5187732577323914],"type":"VEC4"},{"bufferView":74,"componentType":5126,"count":3,"max":[1],"min":[0],"type":"SCALAR"},{"bufferView":75,"componentType":5126,"count":3,"max":[0.8346470594406128,-0.11228308081626892,0.1850367933511734,0.9762960076332092],"min":[0,-0.2164396196603775,0,0.5064762830734253],"type":"VEC4"},{"bufferView":76,"componentType":5126,"count":3,"max":[1],"min":[0],"type":"SCALAR"},{"bufferView":77,"componentType":5126,"count":3,"max":[0,0.2164396196603775,0.1850367933511734,0.9762960076332092],"min":[-0.8346470594406128,0.11228308081626892,0,0.5064762830734253],"type":"VEC4"}],"materials":[{"pbrMetallicRoughness":{"metallicFactor":0,"roughnessFactor":1,"baseColorTexture":{"index":0}},"alphaMode":"MASK","alphaCutoff":0.05,"doubleSided":true},{"pbrMetallicRoughness":{"metallicFactor":0,"roughnessFactor":1,"baseColorTexture":{"index":1}},"alphaMode":"MASK","alphaCutoff":0.05,"doubleSided":true}],"textures":[{"sampler":0,"source":0,"name":"pso_teleporter.png"},{"sampler":1,"source":1,"name":"pso_teleporter2.png"}],"samplers":[{"magFilter":9728,"minFilter":9728,"wrapS":33071,"wrapT":33071},{"magFilter":9728,"minFilter":9728,"wrapS":33071,"wrapT":33071}],"images":[{"mimeType":"image/png","uri":"file:///D:/Users/DoorOpener/Desktop/C2andWADs/minetest/pso_teleporter.png?6"},{"mimeType":"image/png","uri":"file:///D:/Users/DoorOpener/Desktop/C2andWADs/minetest/pso_teleporter2.png?7"}],"meshes":[{"primitives":[{"mode":4,"attributes":{"POSITION":0,"NORMAL":1,"TEXCOORD_0":2},"indices":3,"material":0}]},{"primitives":[{"mode":4,"attributes":{"POSITION":4,"NORMAL":5,"TEXCOORD_0":6},"indices":7,"material":1}]},{"primitives":[{"mode":4,"attributes":{"POSITION":8,"NORMAL":9,"TEXCOORD_0":10},"indices":11,"material":1}]},{"primitives":[{"mode":4,"attributes":{"POSITION":12,"NORMAL":13,"TEXCOORD_0":14},"indices":15,"material":0}]},{"primitives":[{"mode":4,"attributes":{"POSITION":16,"NORMAL":17,"TEXCOORD_0":18},"indices":19,"material":0}]},{"primitives":[{"mode":4,"attributes":{"POSITION":20,"NORMAL":21,"TEXCOORD_0":22},"indices":23,"material":0}]},{"primitives":[{"mode":4,"attributes":{"POSITION":24,"NORMAL":25,"TEXCOORD_0":26},"indices":27,"material":0}]},{"primitives":[{"mode":4,"attributes":{"POSITION":28,"NORMAL":29,"TEXCOORD_0":30},"indices":31,"material":1}]},{"primitives":[{"mode":4,"attributes":{"POSITION":32,"NORMAL":33,"TEXCOORD_0":34},"indices":35,"material":1}]},{"primitives":[{"mode":4,"attributes":{"POSITION":36,"NORMAL":37,"TEXCOORD_0":38},"indices":39,"material":1}]},{"primitives":[{"mode":4,"attributes":{"POSITION":40,"NORMAL":41,"TEXCOORD_0":42},"indices":43,"material":1}]},{"primitives":[{"mode":4,"attributes":{"POSITION":44,"NORMAL":45,"TEXCOORD_0":46},"indices":47,"material":1}]},{"primitives":[{"mode":4,"attributes":{"POSITION":48,"NORMAL":49,"TEXCOORD_0":50},"indices":51,"material":0}]},{"primitives":[{"mode":4,"attributes":{"POSITION":52,"NORMAL":53,"TEXCOORD_0":54},"indices":55,"material":0}]},{"primitives":[{"mode":4,"attributes":{"POSITION":56,"NORMAL":57,"TEXCOORD_0":58},"indices":59,"material":0}]}],"animations":[{"name":"default","samplers":[{"input":60,"output":61,"interpolation":"LINEAR"},{"input":62,"output":63,"interpolation":"LINEAR"},{"input":64,"output":65,"interpolation":"LINEAR"},{"input":66,"output":67,"interpolation":"LINEAR"},{"input":68,"output":69,"interpolation":"LINEAR"},{"input":70,"output":71,"interpolation":"LINEAR"},{"input":72,"output":73,"interpolation":"LINEAR"},{"input":74,"output":75,"interpolation":"LINEAR"},{"input":76,"output":77,"interpolation":"LINEAR"}],"channels":[{"sampler":0,"target":{"node":8,"path":"translation"}},{"sampler":1,"target":{"node":16,"path":"translation"}},{"sampler":2,"target":{"node":14,"path":"translation"}},{"sampler":3,"target":{"node":12,"path":"rotation"}},{"sampler":4,"target":{"node":12,"path":"translation"}},{"sampler":5,"target":{"node":10,"path":"translation"}},{"sampler":6,"target":{"node":18,"path":"rotation"}},{"sampler":7,"target":{"node":20,"path":"rotation"}},{"sampler":8,"target":{"node":22,"path":"rotation"}}]}]}